<?xml version="1.0" encoding="UTF-8" standalone="no"?>
<svg
   id="Layer_2"
   viewBox="0 0 64.000003 63.999999"
   version="1.1"
   sodipodi:docname="portainer-logo.svg"
   width="64"
   height="64"
   inkscape:version="1.4 (e7c3feb100, 2024-10-09)"
   xmlns:inkscape="http://www.inkscape.org/namespaces/inkscape"
   xmlns:sodipodi="http://sodipodi.sourceforge.net/DTD/sodipodi-0.dtd"
   xmlns="http://www.w3.org/2000/svg"
   xmlns:svg="http://www.w3.org/2000/svg">
  <sodipodi:namedview
     id="namedview27"
     pagecolor="#ffffff"
     bordercolor="#666666"
     borderopacity="1.0"
     inkscape:showpageshadow="2"
     inkscape:pageopacity="0.0"
     inkscape:pagecheckerboard="true"
     inkscape:deskcolor="#d1d1d1"
     showgrid="false"
     inkscape:zoom="10.651376"
     inkscape:cx="45.768734"
     inkscape:cy="30.606374"
     inkscape:window-width="1920"
     inkscape:window-height="973"
     inkscape:window-x="0"
     inkscape:window-y="0"
     inkscape:window-maximized="1"
     inkscape:current-layer="Layer_2" />
  <defs
     id="defs1">
    <style
       id="style1">.cls-1{fill:#1c1c1c;}.cls-2{fill:#0ba5ec;fill-rule:evenodd;}</style>
  </defs>
  <g
     id="g27"
     transform="matrix(2.6523,0,0,2.6523,8.553668,0)">
    <path
       class="cls-2"
       d="M 5.9,5.3 H 5.52 V 7.21 H 5.9 Z"
       id="path1" />
    <path
       class="cls-2"
       d="M 7.52,5.3 H 7.14 v 1.91 h 0.38 z"
       id="path2" />
    <path
       class="cls-2"
       d="M 9.74,1.67 9.35,1.02 2.9,4.65 3.29,5.3 Z"
       id="path3" />
    <path
       class="cls-2"
       d="m 9.7,1.67 0.39,-0.65 6.45,3.64 -0.39,0.65 z"
       id="path4" />
    <path
       class="cls-2"
       d="M 17.68,5.31 V 4.56 H 0 v 0.75 z"
       id="path5" />
    <path
       class="cls-2"
       d="M 11.68,15.97 V 4.79 h 0.77 v 11.73 c -0.21,-0.23 -0.47,-0.4 -0.77,-0.54 z"
       id="path6" />
    <path
       class="cls-2"
       d="M 9.36,15.78 V 0 h 0.77 V 15.87 C 9.91,15.77 9.38,15.78 9.36,15.78 Z"
       id="path7" />
    <path
       class="cls-2"
       d="m 2.03,17.35 c -0.94,-0.68 -1.57,-1.77 -1.57,-3 0,-0.65 0.18,-1.3 0.51,-1.86 h 6.61 c 0.34,0.56 0.51,1.21 0.51,1.86 0,0.57 -0.08,1.1 -0.31,1.58 -0.5,-0.47 -1.24,-0.67 -1.98,-0.67 -1.32,0 -2.45,0.8 -2.75,2 -0.1,0 -0.17,-0.02 -0.27,-0.02 -0.25,0 -0.5,0.05 -0.75,0.11 z"
       id="path8" />
    <path
       class="cls-2"
       d="m 5.27,8.05 h -2 v 1.96 h 2 z"
       id="path9" />
    <path
       class="cls-2"
       d="m 3.02,8.05 h -2 v 1.96 h 2 z"
       id="path10" />
    <path
       class="cls-2"
       d="m 3.02,10.24 h -2 v 1.96 h 2 z"
       id="path11" />
    <path
       class="cls-2"
       d="m 5.27,10.24 h -2 v 1.96 h 2 z"
       id="path12" />
    <path
       class="cls-2"
       d="m 7.52,10.24 h -2 v 1.96 h 2 z"
       id="path13" />
    <path
       class="cls-2"
       d="m 7.52,7 h -2 v 1.96 h 2 z"
       id="path14" />
    <path
       class="cls-2"
       d="m 3.38,17.65 c 0.27,-1.13 1.32,-1.98 2.57,-1.98 0.8,0 1.52,0.35 2.01,0.9 0.42,-0.29 0.93,-0.45 1.49,-0.45 1.45,0 2.63,1.15 2.63,2.57 0,0.29 -0.05,0.57 -0.14,0.84 0.32,0.42 0.52,0.96 0.52,1.53 0,1.42 -1.18,2.57 -2.63,2.57 -0.64,0 -1.23,-0.22 -1.68,-0.59 -0.48,0.65 -1.26,1.09 -2.15,1.09 -1.02,0 -1.91,-0.57 -2.35,-1.4 -0.18,0.04 -0.36,0.06 -0.55,0.06 -1.45,0 -2.64,-1.15 -2.64,-2.57 0,-1.42 1.18,-2.57 2.64,-2.57 0.09,0 0.19,0 0.28,0 z"
       id="path15" />
  </g>
</svg>
