<?xml version="1.0" encoding="UTF-8" standalone="no"?>
<svg
   id="Layer_1"
   x="0"
   y="0"
   version="1.1"
   viewBox="0 0 63.999998 63.999999"
   xml:space="preserve"
   sodipodi:docname="logo-pienut.svg"
   width="64"
   height="64"
   inkscape:version="1.4.2 (ebf0e940d0, 2025-05-08)"
   xmlns:inkscape="http://www.inkscape.org/namespaces/inkscape"
   xmlns:sodipodi="http://sodipodi.sourceforge.net/DTD/sodipodi-0.dtd"
   xmlns="http://www.w3.org/2000/svg"
   xmlns:svg="http://www.w3.org/2000/svg"><defs
     id="defs24" /><sodipodi:namedview
     id="namedview24"
     pagecolor="#ffffff"
     bordercolor="#666666"
     borderopacity="1.0"
     inkscape:showpageshadow="2"
     inkscape:pageopacity="0.0"
     inkscape:pagecheckerboard="0"
     inkscape:deskcolor="#d1d1d1"
     inkscape:zoom="4.2978003"
     inkscape:cx="104.70473"
     inkscape:cy="88.650002"
     inkscape:window-width="1920"
     inkscape:window-height="973"
     inkscape:window-x="0"
     inkscape:window-y="0"
     inkscape:window-maximized="1"
     inkscape:current-layer="Layer_1" /><style
     type="text/css"
     id="style1">.st0{fill:#fada9d}.st1{fill:#d59950}.st2{opacity:.21;enable-background:new}.st3{fill:none;stroke:#000;stroke-width:3.83;stroke-linecap:round;stroke-linejoin:round}</style><g
     id="Layer_17"
     transform="matrix(0.30518224,0,0,0.30518224,-0.01533266,4.9437507)"><path
       d="M 96.8,32.7 111.5,18 130.5,5.3 c 0,0 14.6,-3.3 15.3,-3.4 0.7,-0.1 22.6,2.9 22.6,2.9 l 11.4,4.8 13,9.7 6.6,8 7.6,18.2 0.8,19.8 -11.2,23.3 -9.9,9.3 -20.4,13.5 -20.5,8.8 -14.9,6.5 -12.9,15.2 -12,10.1 c -0.1,0.1 -25.2,15.6 -25.2,15.6 l -25.5,7.7 -10.4,-1 -16.2,-3.2 -7.6,-4.6 -7,3.1 -6.1,-2.2 -3,-6 c 0,0 1.5,-11.9 1.5,-13.1 0,-1.2 -2.5,-7.5 -2.5,-7.5 l -2,-19 c 0,0 5.9,-23 6.2,-23.5 0.3,-0.5 11.3,-16.9 11.3,-16.9 0,0 16.9,-14.8 17.5,-15.2 0.6,-0.4 16.7,-9.4 16.7,-9.4 C 65.5,53 77,48.2 88.1,42.4 Z"
       class="st0"
       id="path1" /><path
       d="m 159.2,17.9 c 1.1,1.1 3.6,2.9 4,4.4 0.7,2.4 -2,3.9 -3.7,4.7 l -10,4.7 c -2.1,1.2 -4.5,1.9 -6.9,2.2 -4.8,0.2 -8.9,-3.1 -12.5,-6.2 -1.7,-1.5 -3.6,-3.3 -3.5,-5.5 0.2,-1.5 0.9,-3 2.1,-4 4.6,-4.7 11.1,-7.1 17.7,-6.5 4.9,0.6 9.4,2.8 12.8,6.2 z"
       class="st1"
       id="path2" /><path
       d="m 89.4,52.9 c 1.9,-0.9 4.1,-2.5 6.2,-2.7 3.5,-0.4 7.3,4.1 6.7,7.4 -0.4,2.8 -3.2,4.5 -5.7,5.8 -15,8.2 -30.2,16.4 -45.3,24.6 -1.4,0.9 -3.1,1.5 -4.8,1.8 -2.4,0.2 -4.7,-1.1 -6.8,-2.4 -1.7,-1 -3.5,-2.2 -4,-4.2 -0.3,-1.7 0.3,-3.5 1.6,-4.7 1.3,-1.2 2.8,-2.1 4.4,-2.8 L 82,56.4 Z"
       class="st1"
       id="path3" /><path
       d="m 38.1,92.7 c 1.5,2.4 -0.9,4.6 -2.2,6.6 -3.3,4.9 -6.9,9.6 -10.8,14 -1.2,1.6 -2.8,2.9 -4.7,3.8 -1.9,0.7 -4.4,0.4 -5.5,-1.3 -1.2,-1.9 -0.4,-4.3 0.4,-6.4 l 4.6,-11.1 c 1.1,-2.7 2.3,-5.4 4.4,-7.3 2.2,-1.9 5.1,-2.6 7.9,-2.1 2.4,0.5 4.5,1.8 5.9,3.8 z"
       class="st1"
       id="path4" /><path
       d="m 12.4,130.1 c -0.1,-3.1 0.2,-6.2 0.9,-9.3 l 3.9,1.4 c -1.6,2.7 -3.2,5.2 -4.8,7.9 z"
       class="st1"
       id="path5" /><path
       d="m 19.5,151 c 5,-0.8 10,-2.1 14.8,-3.8 2.6,-0.9 6.4,-1.9 4.5,-5.4 -0.7,-1.4 -1.5,-2.7 -2.4,-3.9 -1.6,-2.3 -3.7,-4.3 -6,-5.9 -5.4,-3.7 -9.3,2.3 -11.7,6.8 -1.6,2.9 -2.6,6 -3,9.2 -0.2,0.7 -0.1,1.5 0.3,2.2 0.7,1.1 2.2,1 3.5,0.8 z"
       class="st1"
       id="path6" /><path
       d="m 42.3,157 c -4.3,1.4 -8.9,2.2 -13.4,2.4 4.5,2.3 9.4,3.4 14.4,3.4 -0.4,-1.9 -0.5,-4 -1,-5.8 z"
       class="st1"
       id="path7" /><path
       d="m 71.9,156.2 c 0,1 -0.2,2 -0.6,2.9 -0.9,1.1 -2.2,1.9 -3.6,2.2 -4.5,1.4 -9.2,2.2 -14,2.3 -0.1,0 -0.1,0 -0.2,0 -1.7,-0.1 -3,-1.5 -2.9,-3.2 0,-2 0.5,-3.9 1.4,-5.6 1.3,-2.1 3.5,-3.5 5.6,-4.7 2.7,-1.5 5.4,-2.9 8.2,-4.2 0.1,0 0.2,-0.1 0.3,-0.1 1.6,-0.5 3.3,0.3 3.9,1.9 1,2.7 2,5.7 1.9,8.5 z"
       class="st1"
       id="path8" /><path
       d="m 39.6,132.9 c -2.4,-2.5 -4.9,-4.8 -7.5,-7 -1.8,-1.6 -2.3,-4.3 -1.1,-6.4 3.3,-5.6 7.7,-10.6 13,-14.5 1.6,-1.2 3.6,-2.4 5.6,-2.2 2.2,0.2 4,1.9 5.5,3.6 2.6,2.6 4.9,5.4 6.9,8.4 2,3.1 2.9,6.7 2.6,10.4 -0.5,4.3 -3.3,8.1 -6.7,10.8 -2.2,1.7 -4.7,3.2 -7.2,4.3 -2.3,1.1 -5.1,0.3 -6.6,-1.8 -1.4,-2 -2.9,-3.8 -4.5,-5.6 z"
       class="st1"
       id="path9" /><path
       d="m 104.8,130.8 c 0.6,2.9 0.3,6 -0.9,8.7 -1.7,3.4 -5.2,5.5 -8.5,7.5 l -14,8.3 c -0.3,0.2 -0.7,0.3 -1.1,0.4 -1.6,0.2 -3.1,-0.9 -3.3,-2.5 -0.6,-4.4 -0.7,-8.9 1.2,-12.8 1.5,-2.7 3.4,-5.1 5.7,-7.1 l 8.9,-9 c 0.8,-0.8 1.6,-1.5 2.6,-2 6.6,-3.6 8.5,3.9 9.4,8.5 z"
       class="st1"
       id="path10" /><path
       d="m 79,84.5 c 3.6,-1.3 7.9,3.3 9.8,6 2.2,3 3.1,6.7 2.8,10.4 -0.8,6.3 -5.8,11.2 -10.6,15.5 -1.4,1.4 -3,2.6 -4.7,3.5 -1.7,0.9 -3.8,1.1 -5.7,0.4 -1.8,-0.8 -3,-2.6 -4,-4.2 L 60,105.4 c -1.3,-2.1 -2.8,-4.6 -2.3,-7.1 0.6,-3.2 3.8,-5.1 6.7,-6.5 4.7,-2.4 9.5,-5.5 14.6,-7.3 z"
       class="st1"
       id="path11" /><path
       d="m 118.6,111.1 c 1.8,1.3 3.2,3.1 3.9,5.2 0.8,2.8 -0.2,5.9 -2,8.3 -1,1.3 -2.2,2.6 -3.4,3.7 -0.3,0.3 -0.6,0.5 -1,0.6 -1.6,0.6 -3.4,-0.2 -4,-1.8 L 104,105.2 c 5.3,1.6 10.3,2.5 14.6,5.9 z"
       class="st1"
       id="path12" /><path
       d="m 99.3,72.1 c -1.7,1.3 -5.2,2.7 -3.8,5.2 1.1,2 3.7,3.4 5.1,5.3 0.3,0.4 3.2,6 2.9,6 2.6,-0.2 5.2,-0.8 7.7,-1.7 2.5,-0.9 4.5,-2.9 5.5,-5.3 0.4,-1.1 0.5,-2.3 0.4,-3.4 C 117,74.4 115,71.1 113,68 c -0.8,-1.2 -1.8,-2.6 -3.2,-2.7 -1.2,-0.2 -2.4,0.6 -3.4,1.4 z"
       class="st1"
       id="path13" /><path
       d="m 137.6,106.4 c 0.3,3.7 1.2,3.4 4.8,3 5.7,-0.7 11.3,-1.9 16.8,-3.6 1.4,-0.4 2.6,-1.6 3,-3 1.3,-4.2 1.6,-8.6 0.8,-12.8 -0.1,-1.6 -0.8,-3.1 -2,-4.3 -1.8,-1.4 -4.3,-0.9 -6.4,-0.4 l -16.6,4 c -0.9,0.2 -1.7,0.6 -2.4,1.1 -2.6,2.2 -1.3,4.7 -0.3,7 1.2,2.9 2,5.9 2.3,9 z"
       class="st1"
       id="path14" /><path
       d="m 118.5,30 c 2.5,1 4.6,3 6.8,4.5 1.7,1.2 3.6,3 3.2,5.1 -0.3,1.5 -1.7,2.5 -3,3.3 l -6.3,4 c -3,1.9 -6.6,3.9 -10,2.9 -2.9,-0.9 -4.7,-3.7 -4.4,-6.7 0.3,-2.5 2.1,-4.5 3.9,-6.4 2.5,-2.8 5.1,-8.5 9.8,-6.7 z"
       class="st1"
       id="path15" /><path
       d="m 123.1,53 c -1.9,1.6 -4.7,3.6 -5,6.3 -0.5,4.9 4.8,11.6 8.6,14 3.5,2.2 7.9,2.7 12.1,2.1 4.1,-0.8 8.1,-2 11.9,-3.7 1.4,-0.6 3,-1.3 3.2,-2.8 0,-0.9 -0.2,-1.8 -0.7,-2.5 l -7.5,-14.1 c -1.5,-2.7 -3.2,-5.7 -6.2,-6.6 -2.5,-0.7 -5.2,0.3 -7.5,1.5 -3.2,1.7 -6.1,3.6 -8.9,5.8 z"
       class="st1"
       id="path16" /><path
       d="m 150.3,43.1 c -0.7,-0.9 -2.8,-2.8 -2.4,-4 0.4,-1.2 2.9,-2.1 4,-2.6 3.1,-1.5 6.5,-2.6 9.9,-3.3 2.6,-0.7 5.4,-0.6 8,0.2 3.1,1.2 5.3,3.9 6.9,6.8 2.2,3.7 3.2,7.9 3,12.1 -0.2,4.3 -2.5,8.2 -6,10.6 -1.8,1.1 -4.2,1.7 -6,0.7 -0.8,-0.5 -1.5,-1.2 -2.1,-2 z"
       class="st1"
       id="path17" /><path
       d="m 186.6,73.1 c 4,3.9 2.2,12.5 0,16.7 -2.7,5.1 -7.5,8.8 -13.1,10.2 l -0.9,-15.9 c -0.3,-1.9 -0.1,-3.8 0.5,-5.6 1.5,-4.1 9.5,-9.3 13.5,-5.4 z"
       class="st1"
       id="path18" /><path
       d="m 192.8,30.9 c -4,-1.4 -8.3,-0.4 -12.3,1.2 2.6,3.1 4.7,6.5 6.3,10.3 2.9,-3.3 5,-7.2 6,-11.5 z"
       class="st1"
       id="path19" /><path
       d="m 184,22.2 c -3.9,0.4 -8.2,1.6 -12.1,2 -1.3,-4.8 -4.1,-9.1 -7.9,-12.3 8,0.4 14.6,4.3 20,10.3 z"
       class="st1"
       id="path20" /><path
       d="m 198.8,46 c -0.9,4.9 -2.9,9.5 -5.9,13.5 2.1,4.3 3.1,9.1 3,13.9 4.7,-8.1 5.2,-18.3 2.9,-27.4 z"
       class="st1"
       id="path21" /><path
       d="m 10.5,168.2 c 3.4,1.3 7.3,0.4 9.9,-2.2 18.6,11.2 42.9,9.6 62.6,0.5 19.7,-9.1 34.9,-25.3 49.1,-41.6 14.1,-4.8 28.3,-9.6 41,-17.3 12.7,-7.7 24,-18.5 29.6,-32.3 4.7,-11.6 5.5,-25.4 1.3,-37.2 -13.3,25.9 -36.2,42.5 -64.6,48.7 -3,11.1 -9.6,21 -17.7,29.2 -8.1,8.2 -17.9,14.6 -28.1,20 -21.4,11.4 -45.6,18.4 -69.6,21.2 -5,4.3 -12.1,5 -17.9,1.9 0.3,3.6 1,7.9 4.4,9.1 z"
       class="st2"
       id="path22" /><path
       d="m 141.2,98.7 c -1.2,12.5 -6.9,24.3 -14.7,34.1 -7.8,9.8 -17.7,17.8 -28.1,24.8 -11.4,7.7 -23.8,14.3 -37.3,16.8 -13.5,2.5 -29.1,0.7 -39.9,-7.8 -2.4,1.2 -5,1.9 -7.7,2.2 -2.7,0.1 -5.6,-0.9 -7.1,-3 C 4.9,163.7 5,160.9 5.2,158.3 5.4,154.2 7.7,149.9 6.1,146.2 -1.6,128.3 2,106.9 12.6,90.5 23.2,74.1 39.8,62.6 57.8,55 75.8,47.4 94.9,43.5 114,39.7"
       class="st3"
       id="path23" /><path
       d="m 130.9,126.7 c 18.4,-9 37.6,-13.5 53.3,-26.7 C 199.1,87.6 209.6,68.6 207.6,49.3 206.3,36.9 199.8,25.2 190.5,16.9 180.8,8.8 169,3.7 156.5,2.3 146.4,1.1 136,2.3 127,7 108.8,16.5 95.7,41.6 76.3,48.5"
       class="st3"
       id="path24" /></g></svg>
