<?xml version="1.0" encoding="UTF-8"?>
<svg xmlns="http://www.w3.org/2000/svg" xmlns:xlink="http://www.w3.org/1999/xlink" width="64px" height="64px" viewBox="0 0 64 64" version="1.1">
<defs>
<linearGradient id="linear0" gradientUnits="userSpaceOnUse" x1="0" y1="0" x2="1" y2="0" gradientTransform="matrix(0.000000230928,0,0,0.000000239441,434.119706,2.992083)">
<stop offset="0" style="stop-color:rgb(15.294118%,15.294118%,15.294118%);stop-opacity:1;"/>
<stop offset="1" style="stop-color:rgb(42.352942%,42.352942%,42.352942%);stop-opacity:1;"/>
</linearGradient>
<clipPath id="clip1">
  <path d="M 19 24 L 62 24 L 62 62 L 19 62 Z M 19 24 "/>
</clipPath>
<clipPath id="clip2">
  <path d="M 62 32 C 62 48.570312 48.570312 62 32 62 C 15.429688 62 2 48.570312 2 32 C 2 15.429688 15.429688 2 32 2 C 48.570312 2 62 15.429688 62 32 Z M 62 32 "/>
</clipPath>
<clipPath id="clip3">
  <path d="M 25 8 L 62 8 L 62 58 L 25 58 Z M 25 8 "/>
</clipPath>
<clipPath id="clip4">
  <path d="M 62 32 C 62 48.570312 48.570312 62 32 62 C 15.429688 62 2 48.570312 2 32 C 2 15.429688 15.429688 2 32 2 C 48.570312 2 62 15.429688 62 32 Z M 62 32 "/>
</clipPath>
<clipPath id="clip5">
  <path d="M 26 11 L 62 11 L 62 57 L 26 57 Z M 26 11 "/>
</clipPath>
<clipPath id="clip6">
  <path d="M 62 32 C 62 48.570312 48.570312 62 32 62 C 15.429688 62 2 48.570312 2 32 C 2 15.429688 15.429688 2 32 2 C 48.570312 2 62 15.429688 62 32 Z M 62 32 "/>
</clipPath>
<clipPath id="clip7">
  <path d="M 26 4 L 37 4 L 37 21 L 26 21 Z M 26 4 "/>
</clipPath>
<clipPath id="clip8">
  <path d="M 29.21875 5.15625 C 29.03125 4.910156 29.03125 4.570312 29.214844 4.320312 C 29.398438 4.074219 29.726562 3.976562 30.015625 4.085938 C 31.484375 4.628906 33.40625 5.460938 34.894531 6.585938 C 37.996094 8.925781 38.84375 10.492188 39.539062 12.101562 C 40.359375 14.011719 40.480469 15.980469 40.304688 17.359375 C 39.804688 21.304688 36.597656 24.5625 32.035156 24.5625 C 27.472656 24.5625 23.839844 21.335938 23.765625 17.359375 C 23.722656 14.964844 24.570312 13.050781 25.492188 11.683594 C 25.722656 11.34375 26.15625 11.207031 26.539062 11.347656 C 26.925781 11.484375 27.167969 11.871094 27.125 12.277344 C 26.992188 13.140625 26.90625 14.039062 26.949219 14.757812 C 27.097656 17.191406 28.660156 17.816406 30.269531 17.800781 C 31.984375 17.785156 33.71875 16.441406 33.09375 13.011719 C 32.546875 10.011719 30.597656 6.996094 29.21875 5.15625 Z M 29.21875 5.15625 "/>
</clipPath>
</defs>
<g id="surface1">
<path style=" stroke:none;fill-rule:evenodd;fill:url(#linear0);" d="M 62 32 C 62 48.570312 48.570312 62 32 62 C 15.429688 62 2 48.570312 2 32 C 2 15.429688 15.429688 2 32 2 C 48.570312 2 62 15.429688 62 32 Z M 62 32 "/>
<g clip-path="url(#clip1)" clip-rule="nonzero">
<g clip-path="url(#clip2)" clip-rule="evenodd">
<path style=" stroke:none;fill-rule:evenodd;fill:rgb(8.627451%,8.627451%,8.627451%);fill-opacity:1;" d="M 19.726562 53.683594 L 49.441406 83.398438 L 85.011719 62.386719 L 47.460938 24.835938 Z M 19.726562 53.683594 "/>
</g>
</g>
<g clip-path="url(#clip3)" clip-rule="nonzero">
<g clip-path="url(#clip4)" clip-rule="evenodd">
<path style=" stroke:none;fill-rule:evenodd;fill:rgb(8.627451%,8.627451%,8.627451%);fill-opacity:1;" d="M 25.855469 22.113281 L 61.179688 57.4375 L 74.441406 45.808594 L 37.105469 8.472656 L 36.753906 17.066406 Z M 25.855469 22.113281 "/>
</g>
</g>
<g clip-path="url(#clip5)" clip-rule="nonzero">
<g clip-path="url(#clip6)" clip-rule="evenodd">
<path style=" stroke:none;fill-rule:evenodd;fill:rgb(8.627451%,8.627451%,8.627451%);fill-opacity:1;" d="M 28.480469 21.363281 L 63.804688 56.6875 L 64.148438 48.84375 L 26.8125 11.507812 L 26.414062 20.515625 Z M 28.480469 21.363281 "/>
</g>
</g>
<path style=" stroke:none;fill-rule:evenodd;fill:rgb(100%,79.607844%,46.27451%);fill-opacity:1;" d="M 32.003906 27.78125 C 35.542969 27.78125 38.640625 26.292969 40.601562 24.75 C 42.589844 23.183594 45.464844 23.492188 47.070312 25.449219 C 49.710938 28.644531 51.289062 32.695312 51.289062 37.101562 C 51.289062 44.3125 46.835938 53.222656 40.644531 56.339844 C 37.980469 57.679688 35.21875 58.320312 32.011719 58.320312 L 32 58.320312 C 28.792969 58.320312 26.03125 57.679688 23.367188 56.339844 C 17.175781 53.222656 12.722656 44.3125 12.722656 37.101562 C 12.722656 32.695312 14.300781 28.644531 16.941406 25.449219 C 18.546875 23.492188 21.421875 23.183594 23.410156 24.75 C 25.371094 26.292969 28.46875 27.78125 32.003906 27.78125 Z M 32.003906 27.78125 "/>
<path style=" stroke:none;fill-rule:evenodd;fill:rgb(100%,43.529412%,0%);fill-opacity:1;" d="M 29.21875 5.15625 C 29.03125 4.910156 29.03125 4.570312 29.214844 4.320312 C 29.398438 4.074219 29.726562 3.976562 30.015625 4.085938 C 31.484375 4.628906 33.40625 5.460938 34.894531 6.585938 C 37.996094 8.925781 38.84375 10.492188 39.539062 12.101562 C 40.359375 14.011719 40.480469 15.980469 40.304688 17.359375 C 39.804688 21.304688 36.597656 24.5625 32.035156 24.5625 C 27.472656 24.5625 23.839844 21.335938 23.765625 17.359375 C 23.722656 14.964844 24.570312 13.050781 25.492188 11.683594 C 25.722656 11.34375 26.15625 11.207031 26.539062 11.347656 C 26.925781 11.484375 27.167969 11.871094 27.125 12.277344 C 26.992188 13.140625 26.90625 14.039062 26.949219 14.757812 C 27.097656 17.191406 28.660156 17.816406 30.269531 17.800781 C 31.984375 17.785156 33.71875 16.441406 33.09375 13.011719 C 32.546875 10.011719 30.597656 6.996094 29.21875 5.15625 Z M 29.21875 5.15625 "/>
<g clip-path="url(#clip7)" clip-rule="nonzero">
<g clip-path="url(#clip8)" clip-rule="evenodd">
<path style=" stroke:none;fill-rule:evenodd;fill:rgb(100%,81.960785%,0%);fill-opacity:1;" d="M 28.046875 4.21875 C 30.734375 5.0625 33.945312 7.605469 35.433594 11.398438 C 37.902344 17.699219 34.898438 20.164062 31.988281 20.566406 C 27.320312 21.210938 24.953125 17.324219 27.0625 11.699219 C 28.371094 8.210938 25.601562 3.453125 28.046875 4.21875 Z M 28.046875 4.21875 "/>
</g>
</g>
<path style=" stroke:none;fill-rule:evenodd;fill:rgb(8.627451%,8.627451%,8.627451%);fill-opacity:1;" d="M 28.617188 51.449219 C 27.953125 51.449219 27.359375 51.226562 26.898438 50.855469 C 26.628906 50.636719 26.523438 50.265625 26.640625 49.9375 C 26.757812 49.605469 27.070312 49.382812 27.421875 49.382812 C 29.105469 49.375 32 49.375 32 49.375 C 32 49.375 34.894531 49.375 36.578125 49.382812 C 36.929688 49.382812 37.242188 49.605469 37.359375 49.9375 C 37.476562 50.265625 37.371094 50.636719 37.101562 50.855469 C 36.640625 51.226562 36.050781 51.449219 35.382812 51.449219 Z M 27.289062 47.859375 C 26.921875 47.859375 26.570312 47.710938 26.3125 47.453125 C 26.050781 47.191406 25.90625 46.839844 25.90625 46.472656 C 25.90625 45.707031 25.910156 44.910156 25.910156 44.910156 C 25.910156 44.410156 25.578125 43.972656 25.09375 43.839844 C 23.421875 43.371094 22.195312 41.871094 22.195312 40.097656 C 22.195312 37.945312 23.996094 36.199219 26.214844 36.199219 C 27.066406 36.199219 27.828125 35.660156 28.109375 34.859375 C 28.503906 33.742188 29.613281 32.488281 31.988281 32.484375 L 32.011719 32.484375 C 34.386719 32.488281 35.496094 33.742188 35.890625 34.859375 C 36.171875 35.660156 36.933594 36.199219 37.785156 36.199219 C 40.003906 36.199219 41.804688 37.945312 41.804688 40.097656 C 41.804688 41.871094 40.578125 43.371094 38.90625 43.839844 C 38.425781 43.972656 38.089844 44.410156 38.089844 44.910156 C 38.089844 44.910156 38.09375 45.707031 38.09375 46.472656 C 38.09375 46.839844 37.945312 47.191406 37.6875 47.453125 C 37.429688 47.710938 37.074219 47.859375 36.707031 47.859375 C 34.363281 47.859375 29.636719 47.859375 27.289062 47.859375 Z M 27.289062 47.859375 "/>
</g>
</svg>
