<?xml version="1.0" encoding="UTF-8" standalone="no"?>
<!-- Generator: Adobe Illustrator 16.0.0, SVG Export Plug-In . SVG Version: 6.00 Build 0)  -->

<svg
   version="1.1"
   id="Layer_1"
   x="0px"
   y="0px"
   width="64"
   height="64"
   viewBox="0 0 64 64"
   enable-background="new 0 0 115.333 114"
   xml:space="preserve"
   sodipodi:docname="logo-prometheus.svg"
   inkscape:version="1.4 (e7c3feb100, 2024-10-09)"
   xmlns:inkscape="http://www.inkscape.org/namespaces/inkscape"
   xmlns:sodipodi="http://sodipodi.sourceforge.net/DTD/sodipodi-0.dtd"
   xmlns="http://www.w3.org/2000/svg"
   xmlns:svg="http://www.w3.org/2000/svg"
   xmlns:rdf="http://www.w3.org/1999/02/22-rdf-syntax-ns#"
   xmlns:cc="http://creativecommons.org/ns#"
   xmlns:dc="http://purl.org/dc/elements/1.1/"><metadata
     id="metadata4495"><rdf:RDF><cc:Work
         rdf:about=""><dc:format>image/svg+xml</dc:format><dc:type
           rdf:resource="http://purl.org/dc/dcmitype/StillImage" /></cc:Work></rdf:RDF></metadata><defs
     id="defs4493" /><sodipodi:namedview
     pagecolor="#ffffff"
     bordercolor="#666666"
     borderopacity="1"
     objecttolerance="10"
     gridtolerance="10"
     guidetolerance="10"
     inkscape:pageopacity="0"
     inkscape:pageshadow="2"
     inkscape:window-width="1920"
     inkscape:window-height="973"
     id="namedview4491"
     showgrid="false"
     inkscape:zoom="5.2784901"
     inkscape:cx="60.623397"
     inkscape:cy="60.244501"
     inkscape:window-x="0"
     inkscape:window-y="0"
     inkscape:window-maximized="1"
     inkscape:current-layer="Layer_1"
     inkscape:showpageshadow="2"
     inkscape:pagecheckerboard="0"
     inkscape:deskcolor="#d1d1d1" /><g
     id="Layer_2" /><path
     style="fill:#e6522c;fill-opacity:1;stroke-width:0.564713"
     inkscape:connector-curvature="0"
     id="path4486"
     d="M 32.000282,0 C 14.32776,0 0,14.326319 0,31.999717 0,49.672552 14.32776,64 32.000282,64 49.672805,64 64,49.672552 64,31.999717 64,14.326319 49.67224,0 32.000282,0 Z m 0,59.891116 c -5.028156,0 -9.104779,-3.358941 -9.104779,-7.501144 h 18.209559 c 0,4.141638 -4.076624,7.501144 -9.10478,7.501144 z M 47.038444,49.90578 H 16.960426 V 44.451738 H 47.039009 V 49.90578 Z M 46.930585,41.644528 H 17.046262 c -0.09939,-0.114638 -0.201036,-0.227581 -0.297036,-0.343913 -3.078786,-3.73843 -3.80387,-5.690094 -4.508061,-7.679029 -0.01186,-0.06551 3.733282,0.765193 6.389102,1.362663 0,0 1.366592,0.316243 3.364527,0.680485 -1.918311,-2.248706 -3.057327,-5.107305 -3.057327,-8.029153 0,-6.414627 4.919733,-12.020013 3.144857,-16.550741 1.72744,0.140615 3.575163,3.645816 3.699964,9.1264 1.836429,-2.537841 2.604995,-7.172478 2.604995,-10.014136 0,-2.9421782 1.938641,-6.3598485 3.877847,-6.4767451 -1.72857,2.8489999 0.447813,5.2914031 2.382501,11.3502571 0.72565,2.275812 0.633037,6.105726 1.193227,8.534575 0.185789,-5.044621 1.05318,-12.405148 4.253378,-14.9463775 -1.411769,3.2002535 0.208941,7.2046665 1.317462,9.1297885 1.788429,3.105946 2.872668,5.459123 2.872668,9.909663 0,2.983966 -1.101745,5.793436 -2.960197,7.989623 2.113135,-0.396432 3.57234,-0.753899 3.57234,-0.753899 l 6.862326,-1.338944 c 5.64e-4,-5.65e-4 -0.996709,4.100413 -4.82825,8.049483 z" /></svg>
