<?xml version="1.0" encoding="UTF-8" standalone="no"?>
<svg
   width="64"
   height="64"
   viewBox="0 0 64 64"
   version="1.1"
   id="svg2"
   sodipodi:docname="logo-traefik.svg"
   inkscape:version="1.4 (e7c3feb100, 2024-10-09)"
   xmlns:inkscape="http://www.inkscape.org/namespaces/inkscape"
   xmlns:sodipodi="http://sodipodi.sourceforge.net/DTD/sodipodi-0.dtd"
   xmlns="http://www.w3.org/2000/svg"
   xmlns:svg="http://www.w3.org/2000/svg">
  <defs
     id="defs2" />
  <sodipodi:namedview
     id="namedview2"
     pagecolor="#ffffff"
     bordercolor="#666666"
     borderopacity="1.0"
     inkscape:showpageshadow="2"
     inkscape:pageopacity="0.0"
     inkscape:pagecheckerboard="true"
     inkscape:deskcolor="#d1d1d1"
     showgrid="false"
     inkscape:zoom="5.416943"
     inkscape:cx="16.337628"
     inkscape:cy="33.782892"
     inkscape:window-width="1920"
     inkscape:window-height="973"
     inkscape:window-x="0"
     inkscape:window-y="0"
     inkscape:window-maximized="1"
     inkscape:current-layer="svg2" />
  <path
     fill="#4b76dd"
     d="M 14.596218,52.905996 C 9.8158371,52.504762 6.1603911,51.099203 3.5043461,48.642549 0.79662108,46.141591 -0.36031912,42.882467 0.09755408,39.071951 0.62432008,34.687885 2.7634251,31.591226 6.5173341,29.784428 9.4096651,28.39364 12.29711,27.864401 16.996244,27.861943 c 3.340364,0 6.136713,0.265848 10.405093,0.987081 1.056006,0.179723 1.969245,0.324939 2.030787,0.324939 0.08857,0 0.16,-0.327393 0.354461,-1.634489 0.349543,-2.363112 0.411096,-3.180356 0.317543,-4.125603 -0.11338,-1.102785 -0.256002,-1.629563 -0.686779,-2.483723 -1.107718,-2.203112 -3.734215,-3.552045 -7.9558,-4.08128 -1.206187,-0.152633 -3.99269,-0.172306 -5.203769,-0.03943 -2.025879,0.221554 -3.155749,0.507103 -5.676384,1.427729 -1.4769559,0.536619 -1.4818839,0.536619 -2.0701949,0.504619 -1.0117,-0.05906 -1.703406,-0.504619 -2.146495,-1.385866 -0.182182,-0.361847 -0.214167,-0.512011 -0.214167,-1.001851 0,-0.733559 0.197007,-1.122481 0.88125,-1.745252 1.533554,-1.395725 4.1132859,-2.584665 6.7200789,-3.096674 1.666492,-0.324928 2.486201,-0.393851 4.684382,-0.391389 2.272032,0.005 3.726821,0.128001 5.747779,0.492314 3.360055,0.610471 5.912708,1.681255 7.835189,3.293577 0.5711,0.477553 1.432645,1.420341 1.80188,1.969264 a 1.0658621,1.0658621 0 0 0 0.258454,0.305233 c 0.02948,0 0.214179,-0.201827 0.413552,-0.448004 2.914504,-3.613585 7.820423,-5.661617 13.570665,-5.656692 4.066509,0 7.84504,1.004321 10.663523,2.825907 2.235135,1.44493 4.049307,3.667722 4.782856,5.863464 0.420919,1.260316 0.48492,1.725564 0.489852,3.554502 0,1.139713 -0.02948,1.907729 -0.096,2.264663 -0.659713,3.593892 -2.230184,6.087463 -4.955161,7.859793 -2.193252,1.427725 -4.947749,2.264649 -8.551503,2.592052 -1.811719,0.167393 -5.129913,0.150052 -7.27887,-0.03452 -1.821575,-0.155026 -4.0616,-0.43077 -5.016692,-0.615396 a 83.988913,83.988913 0 0 0 -3.559441,-0.580933 54.523878,54.523878 0 0 0 -0.290462,1.77233 c -0.238692,1.538482 -0.270768,1.924953 -0.278157,3.153275 -0.0058,1.25048 0.01417,1.469559 0.16993,2.048027 0.497242,1.856025 1.595104,3.096665 3.588972,4.056673 1.961876,0.942789 4.014831,1.353874 7.121334,1.415403 1.376028,0.02714 2.080036,0.0068 2.939132,-0.08126 2.084931,-0.214121 3.035113,-0.450464 5.804377,-1.442483 0.689254,-0.246154 1.395718,-0.47016 1.565565,-0.49969 0.36677,-0.05908 1.048636,0.064 1.444949,0.260921 0.718777,0.354469 1.321866,1.299708 1.316943,2.067725 -0.0023,0.891088 -0.312628,1.432638 -1.223411,2.136649 -2.173565,1.683715 -4.947761,2.717596 -8.2635,3.076959 -1.181559,0.12303 -3.879447,0.145336 -5.184068,0.03452 -3.667772,-0.310155 -6.217968,-0.920618 -8.546616,-2.050494 -1.816639,-0.878782 -3.202504,-1.969253 -4.238841,-3.337885 a 60.77627,60.77627 0 0 0 -0.480003,-0.627707 3.2025088,3.2025088 0 0 0 -0.376616,0.430775 15.025455,15.025455 0 0 1 -3.502817,3.091736 c -1.878187,1.186482 -4.576067,2.092335 -7.303503,2.454191 -0.814772,0.108276 -3.515119,0.196943 -4.209293,0.140272 z m 4.68684,-5.120074 c 2.230182,-0.480004 4.214205,-1.563095 5.656686,-3.084345 1.314489,-1.385878 2.39266,-3.465908 2.985885,-5.755169 0.33478,-1.292326 0.891105,-4.886222 0.768018,-4.960071 -0.04926,-0.02948 -0.34461,-0.07384 -0.654779,-0.103368 a 77.204823,77.204823 0 0 1 -1.966799,-0.226364 c -4.578514,-0.576006 -7.389646,-0.800007 -8.96506,-0.71385 -2.995724,0.162376 -4.216661,0.418459 -6.01361,1.255393 -0.920632,0.425872 -1.5581799,0.891102 -2.0603439,1.501562 -0.721251,0.881252 -1.156935,1.755109 -1.462171,2.931747 -0.221605,0.856629 -0.2437,3.099124 -0.03696,3.820358 0.344622,1.218481 0.755724,1.907723 1.676334,2.818509 1.2627869,1.250478 2.9292729,2.082487 4.9945349,2.498497 1.056016,0.214089 1.024016,0.211681 2.791435,0.18698 1.28248,-0.01879 1.762491,-0.05421 2.289268,-0.167387 z M 48.469941,30.936449 c 1.863412,-0.16 3.008042,-0.443086 4.416062,-1.083094 1.171714,-0.536623 1.851098,-1.083098 2.496037,-2.008646 0.947714,-1.358788 1.31694,-2.646193 1.307105,-4.558838 -0.0068,-1.363706 -0.123027,-1.929871 -0.608013,-2.909576 -1.083095,-2.185886 -3.61852,-3.751429 -6.946563,-4.285614 -0.832017,-0.135362 -3.059752,-0.110682 -3.913907,0.03943 -1.634493,0.292919 -3.020353,0.822155 -4.241286,1.624626 -2.254806,1.486794 -3.812989,3.724365 -4.676997,6.729954 -0.344626,1.18155 -0.433236,1.632023 -0.738474,3.66774 l -0.278156,1.875722 0.374157,0.04181 c 1.132322,0.123008 3.687446,0.423394 5.171768,0.608013 0.935398,0.118253 2.080034,0.24368 2.545268,0.278158 1.351408,0.103376 3.768658,0.09357 5.092999,-0.01879 z"
     id="path2"
     style="fill-rule:nonzero;stroke-width:2.46149" />
</svg>
