<svg xmlns="http://www.w3.org/2000/svg" fill="none" viewBox="0 0 64 64" id="Z-Wave-Logo--Streamline-Logos" height="64" width="64">
  <desc>
    Z Wave Logo Streamline Icon: https://streamlinehq.com
  </desc>
  <path fill="#000000" fill-rule="evenodd" d="M44.666666666666664 8C24.416 8 8 24.416 8 44.666666666666664H2.6666666666666665C2.6666666666666665 21.471999999999998 21.471999999999998 2.6666666666666665 44.666666666666664 2.6666666666666665v5.333333333333333Zm0 11.333333333333332a25.333333333333332 25.333333333333332 0 0 0 -25.333333333333332 25.333333333333332h-5.333333333333333c0 -16.936 13.730666666666666 -30.666666666666664 30.666666666666664 -30.666666666666664v5.333333333333333Zm16.666666666666664 25.333333333333332a16.666666666666664 16.666666666666664 0 1 1 -33.33333333333333 0 16.666666666666664 16.666666666666664 0 0 1 33.33333333333333 0Zm-22.666666666666664 -8.666666666666666 -2.6666666666666665 5.333333333333333H42.666666666666664l-6.666666666666666 10.666666666666666h13.333333333333332l4 -5.333333333333333h-6.666666666666666l6.666666666666666 -10.666666666666666h-14.666666666666666Z" clip-rule="evenodd" stroke-width="2.6667"></path>
</svg>