<svg width="64" height="64" xmlns="http://www.w3.org/2000/svg" version="1.1">

 <g>
  <title>Layer 1</title>
  <g stroke="null" id="surface1">
   <path stroke="null" id="svg_1" fill="rgb(1.568628%,11.764706%,25.882354%)" fill-rule="nonzero" d="m13.84905,25.43899c-0.37083,-0.65058 -0.58551,-1.39874 -0.58551,-2.19243c0,-2.45266 2.01027,-4.44341 4.48243,-4.44341c0.91081,0 1.76306,0.27324 2.47218,0.74165c-0.52697,1.17753 -0.82624,2.47868 -0.82624,3.84489c0,0.25372 0.01302,0.50094 0.03254,0.74816c-0.17566,-0.01302 -0.35131,-0.01302 -0.52697,-0.01302c-1.82811,0 -3.55212,0.47492 -5.04844,1.31417zm-0.98236,17.23364c-2.59579,-1.86064 -4.29378,-4.8923 -4.29378,-8.3078c0,-0.87177 0.1171,-1.71751 0.32528,-2.52421c-0.09107,-0.00651 -0.17566,-0.00651 -0.26023,-0.00651c-4.74917,0 -8.60707,3.83187 -8.60707,8.5355c0,4.71013 3.8579,8.54202 8.60707,8.54202c1.80859,0 3.48707,-0.553 4.87278,-1.50283c-0.5725,-0.88478 -0.90428,-1.93219 -0.90428,-3.05118c0,-0.59202 0.09107,-1.15801 0.26023,-1.69148l0,0.0065zm0.38382,-0.92382c0.77419,-1.46378 2.17943,-2.55674 3.85139,-2.91456c0.16265,-0.03253 0.31879,-0.05854 0.48144,-0.07806c0.16263,-0.01952 0.32528,-0.03253 0.48793,-0.03904c0.07806,-0.0065 0.14963,-0.0065 0.22769,-0.0065c0.26023,0 0.52046,0.0195 0.78069,0.05205c-0.08457,-0.57902 -0.13011,-1.16453 -0.13011,-1.76306c0,-2.86901 0.94983,-5.52335 2.55024,-7.67025c-0.36432,-0.44889 -0.68311,-0.9238 -0.96285,-1.43776c-0.07806,-0.14313 -0.14963,-0.28624 -0.22119,-0.43589c-0.07156,-0.14963 -0.13662,-0.29925 -0.20167,-0.44889c-0.24722,-0.59852 -0.43589,-1.23609 -0.5595,-1.88665c-0.21469,-0.01301 -0.43589,-0.02603 -0.65708,-0.02603c-1.61342,0 -3.14226,0.40987 -4.46942,1.132c-0.14313,0.07808 -0.28626,0.16265 -0.42939,0.24722c-0.13662,0.09108 -0.27324,0.18215 -0.41637,0.27324c-1.50933,1.04092 -2.69987,2.51772 -3.38297,4.24174c-0.06505,0.15614 -0.1171,0.30576 -0.16914,0.4619c-0.05205,0.15614 -0.10409,0.31227 -0.14313,0.46841c-0.21468,0.78069 -0.33179,1.60041 -0.33179,2.44615c0,3.01214 1.45079,5.69251 3.69525,7.38399zm30.16704,-10.9361c1.24259,-0.65058 2.63481,-1.05392 4.11161,-1.14501c-0.37734,-4.36535 -4.07909,-7.80037 -8.57454,-7.80037c-0.16914,0 -0.33831,0.00651 -0.50745,0.01952c0.07808,0.48793 0.12361,0.98887 0.12361,1.50283c0,0.79369 -0.10409,1.56787 -0.28626,2.30302c2.15991,1.19054 3.94247,2.96661 5.13303,5.12zm-22.93917,-6.07635c0.02601,0.16914 0.05854,0.33831 0.09758,0.51395c0.09108,0.38384 0.20169,0.76118 0.33831,1.1255c0.06505,0.16263 0.13011,0.32528 0.20167,0.48142c0.07156,0.15614 0.14313,0.30576 0.22119,0.4554c0.23421,0.44238 0.49444,0.85223 0.79371,1.24259c0.60503,-0.68311 1.27511,-1.31415 2.01027,-1.86064c0.13662,-0.10409 0.27324,-0.20818 0.42286,-0.30576c0.13662,-0.0976 0.27975,-0.18866 0.42939,-0.28626c1.97774,-1.2491 4.31329,-1.98423 6.81799,-2.02327c0.05854,0 0.1171,0 0.16914,0c0.16263,0 0.32528,0.00651 0.48793,0.00651c0.22119,0.01301 0.44238,0.02601 0.66357,0.04553c1.50283,0.13011 2.93408,0.51395 4.24825,1.11248c0.13662,-0.59853 0.20818,-1.21657 0.20818,-1.85413c0,-0.46841 -0.03904,-0.93682 -0.1106,-1.39223c-0.02603,-0.15614 -0.05856,-0.31879 -0.09758,-0.47492c-0.03254,-0.15614 -0.07156,-0.31227 -0.11712,-0.46841c-1.02789,-3.57813 -4.34581,-6.20645 -8.27528,-6.20645c-3.24636,0 -6.07633,1.78907 -7.54012,4.42389c-0.08457,0.14963 -0.16265,0.29927 -0.23421,0.44889c-0.07806,0.15614 -0.14311,0.31879 -0.21468,0.48142c-0.39685,0.98887 -0.62455,2.06233 -0.62455,3.19431c0,0.27975 0.01952,0.56601 0.04553,0.84576c0.01301,0.16263 0.03904,0.33178 0.06505,0.50094l-0.0065,-0.00651zm38.77409,14.44271c-0.26023,0 -0.50745,0.02601 -0.75467,0.06505c0.01302,0.21468 0.02603,0.42286 0.02603,0.63756c0,2.71939 -1.07995,5.19806 -2.82999,7.03269c0.86526,0.98887 2.14039,1.61991 3.55863,1.61991c2.60229,0 4.71664,-2.09484 4.71664,-4.67761c0,-2.57627 -2.11436,-4.67761 -4.71664,-4.67761zm-1.71751,0.32528c-0.00651,-0.16914 -0.01952,-0.33179 -0.03253,-0.50094c-0.01952,-0.16916 -0.03904,-0.33179 -0.06507,-0.49444c-0.65708,-4.35232 -4.37184,-7.72879 -8.89982,-7.89144c-0.11059,0 -0.22769,-0.00651 -0.33829,-0.00651c-0.05205,0 -0.10409,0 -0.14963,0.00651c-0.16265,0 -0.3253,0.00651 -0.48793,0.01952c-1.33367,0.08457 -2.58928,0.4554 -3.71477,1.04092c0.67659,1.4768 1.07995,3.10323 1.1515,4.81422c0.00651,0.16916 0.01302,0.33831 0.01302,0.50745c0,0.05205 -0.00651,0.10409 -0.00651,0.14964c0,0.22119 -0.00651,0.43587 -0.02601,0.65056c-0.19518,3.22032 -1.5874,6.11538 -3.73429,8.27528c1.711,1.89317 4.19619,3.07721 6.9481,3.07721c2.3811,0 4.56051,-0.88478 6.21296,-2.34206c0.12361,-0.11712 0.24071,-0.2277 0.36432,-0.3448c0.1171,-0.11712 0.23421,-0.24073 0.35131,-0.36432c1.50281,-1.64596 2.42012,-3.82537 2.42012,-6.21948c0,-0.13011 -0.0065,-0.25372 -0.0065,-0.37733zm-36.56215,4.39786c-0.09107,-0.14311 -0.18215,-0.28624 -0.26672,-0.44238c-0.66359,-1.132 -1.15803,-2.36809 -1.45079,-3.68875c-0.31227,-0.05854 -0.63104,-0.09107 -0.96284,-0.09107c-0.03253,0 -0.06505,0 -0.0976,0c-0.16914,0.0065 -0.33178,0.01952 -0.48791,0.03902c-0.16265,0.01952 -0.3253,0.05205 -0.48144,0.08459c-1.39221,0.32528 -2.54373,1.25559 -3.16177,2.4982c-0.07156,0.14963 -0.13663,0.29925 -0.19518,0.45539c-0.05205,0.14964 -0.10409,0.30578 -0.14313,0.46841c-0.09108,0.36432 -0.14313,0.74166 -0.14313,1.132c0,0.89779 0.26023,1.73703 0.70263,2.45266c0.09108,0.13662 0.18215,0.27324 0.27975,0.40334c0.10409,0.12361 0.20818,0.24722 0.31877,0.36432c0.85876,0.8978 2.06882,1.45728 3.40901,1.45728c1.99726,0 3.70826,-1.24259 4.39136,-2.97962c-0.52046,-0.53346 -1.00189,-1.09946 -1.42475,-1.71751c-0.0976,-0.13662 -0.19518,-0.28624 -0.28626,-0.42937l0,-0.00651zm23.01725,-5.97224c0.01301,-0.20818 0.02601,-0.41637 0.03253,-0.61805c0,-0.10409 0.0065,-0.20818 0.0065,-0.31227c0,-1.711 -0.37082,-3.34394 -1.02789,-4.82074c-0.06507,-0.14963 -0.13663,-0.29927 -0.20818,-0.44889c-0.07156,-0.14313 -0.14313,-0.28626 -0.22121,-0.42937c-1.06693,-1.93872 -2.66083,-3.55214 -4.58652,-4.6581c-0.14313,-0.07806 -0.28626,-0.15614 -0.43589,-0.2342c-0.14313,-0.07808 -0.29276,-0.14964 -0.4424,-0.22121c-1.4768,-0.6896 -3.11623,-1.09296 -4.85326,-1.13198c-0.09108,0 -0.18215,-0.00651 -0.27324,-0.00651c-0.1171,0 -0.23421,0 -0.3448,0.00651c-0.20818,0.0065 -0.41637,0.01952 -0.61805,0.03253c-1.90617,0.14963 -3.68222,0.74165 -5.23059,1.65895c-0.14313,0.09108 -0.28626,0.18217 -0.42937,0.27324c-0.13663,0.09108 -0.27975,0.18868 -0.41637,0.28626c-0.80021,0.5725 -1.53536,1.24259 -2.17291,1.99075c-0.10409,0.13012 -0.20818,0.25373 -0.31227,0.38384c-0.0976,0.13012 -0.19518,0.26023 -0.29276,0.39035c-1.40524,1.95822 -2.23797,4.35232 -2.23797,6.92858c0,0.68311 0.05854,1.34669 0.16914,2.00377c0.03253,0.18215 0.07156,0.37082 0.1106,0.55298c0.03902,0.20167 0.09107,0.40336 0.14963,0.59852c0.29927,1.09296 0.74816,2.12087 1.32716,3.05769c0.09108,0.14313 0.18217,0.28626 0.27325,0.42288c0.09758,0.13662 0.19516,0.27975 0.29276,0.41637c0.2277,0.30576 0.46841,0.59852 0.72213,0.87827c0.13662,0.14963 0.27975,0.30576 0.42288,0.44889c0.13662,0.13662 0.27324,0.26674 0.40985,0.39035c2.1534,1.97774 5.02242,3.18129 8.1777,3.18129c3.14876,0 5.80961,-1.11898 7.93047,-2.96661c0.12361,-0.11059 0.24071,-0.21468 0.35781,-0.32528c0.12361,-0.1171 0.24071,-0.2342 0.35781,-0.35131c1.76306,-1.80858 2.9536,-4.15715 3.2984,-6.77896c0.02603,-0.20167 0.04555,-0.40336 0.06507,-0.61154l0,0.01302zm0,0"/>
  </g>
 </g>
</svg>